<?xml version="1.0" standalone="no"?>
<!DOCTYPE svg PUBLIC "-//W3C//DTD SVG 20010904//EN"
 "http://www.w3.org/TR/2001/REC-SVG-20010904/DTD/svg10.dtd">
<svg version="1.0" xmlns="http://www.w3.org/2000/svg"
 width="223.000000pt" height="228.000000pt" viewBox="0 0 223.000000 228.000000"
 preserveAspectRatio="xMidYMid meet">

<g transform="translate(0.000000,228.000000) scale(0.100000,-0.100000)"
fill="#000000" stroke="none">
<path d="M951 2184 c-222 -60 -373 -255 -373 -484 1 -284 217 -500 503 -500
191 0 359 108 444 285 77 161 65 339 -34 492 -111 172 -342 261 -540 207z m75
-430 c-4 -9 -61 -12 -124 -5 -9 1 -11 14 -7 49 14 107 55 213 104 265 l26 28
3 -162 c1 -90 1 -168 -2 -175z m164 261 c28 -46 60 -154 63 -214 l2 -54 -45
-3 c-95 -8 -90 -17 -90 178 l0 171 26 -24 c14 -13 34 -37 44 -54z m-339 -18
c-21 -49 -51 -179 -51 -221 0 -29 -10 -33 -75 -32 -49 1 -50 2 -47 30 8 71 45
140 113 210 38 38 71 67 74 64 3 -3 -3 -26 -14 -51z m517 -16 c47 -48 96 -141
107 -202 l7 -37 -64 2 -63 1 -8 69 c-4 39 -20 107 -36 153 -27 77 -27 82 -8
72 11 -6 40 -32 65 -58z m-564 -398 c6 -58 31 -149 61 -217 7 -17 6 -17 -15
-6 -69 37 -158 169 -174 258 l-5 32 63 0 63 0 7 -67z m226 -105 l0 -171 -21
19 c-52 46 -99 160 -114 277 l-6 47 70 0 71 0 0 -172z m225 115 c-10 -83 -40
-172 -75 -225 -56 -85 -60 -78 -60 112 l0 170 71 0 71 0 -7 -57z m220 25 c-14
-70 -65 -159 -120 -214 -31 -30 -59 -54 -64 -54 -4 0 6 38 21 85 16 47 32 115
35 150 l6 65 64 0 65 0 -7 -32z"/>
<path d="M780 595 l0 -495 315 0 315 0 0 495 0 495 -315 0 -315 0 0 -495z
m540 0 l0 -405 -220 0 -220 0 0 405 0 405 220 0 220 0 0 -405z"/>
<path d="M1520 485 l0 -385 315 0 315 0 0 385 0 385 -315 0 -315 0 0 -385z
m530 0 l0 -295 -220 0 -220 0 0 295 0 295 220 0 220 0 0 -295z"/>
<path d="M50 385 l0 -285 315 0 315 0 0 285 0 285 -315 0 -315 0 0 -285z m540
0 l0 -195 -220 0 -220 0 -1 165 c-1 91 -1 174 -1 185 0 11 0 25 1 30 1 6 82
10 221 10 l220 0 0 -195z"/>
</g>
</svg>
